<svg id="Capa_1" data-name="Capa 1" xmlns="http://www.w3.org/2000/svg" viewBox="0 0 1552.76 601.68"><defs><style>.cls-1{fill:#94a71a;}.cls-2{fill:#728034;}.cls-3{fill:#ffb901;}.cls-4{fill:#d05416;}.cls-5{fill:#6d4d42;}</style></defs><path class="cls-1" d="M225.68,453.66l-28.42,2.68s-3,49.49-6.35,77.59c-2.48,21-9.29,37.17-13,45.82-3.32,7.68-.65,20.42,13.39,21.07,14.72.65,21.07-7.34,23.4-16.71s8.38-30.1,9.72-59.2,1.3-71.25,1.3-71.25Z" transform="translate(-80.24 -17.47)"/><path class="cls-1" d="M213.63,523.88s10.9-29.34,41-32.36c40.07-4,60.3,24,61.3,29.68s-29.64,29.48-57.71,29.48c-31.09,0-45.58-15.45-45.58-15.45Z" transform="translate(-80.24 -17.47)"/><path class="cls-2" d="M291.57,518.52c1.34-5.85-8.68-11.36-26.73-9.71s-27.31,6.84-31.67,9.86-14.15,9.57-11.81,11.9,17.17-3.79,31.51-6c24.85-3.82,37.13.77,38.7-6Z" transform="translate(-80.24 -17.47)"/><path class="cls-1" d="M197.26,546.32s-3.44-34.53-38.93-45.35c-29.44-9-63.79,15.1-64.55,20S116,551.79,141.43,559.1c26.65,7.72,52.51,1.83,55.83-12.78Z" transform="translate(-80.24 -17.47)"/><path class="cls-2" d="M116.07,525.6c1,5.39,15.11,4.62,34.08,8.45s32.77,12.54,35.33,10.51-7.11-18.7-35.87-25.62C128.39,513.82,115.31,521.5,116.07,525.6Z" transform="translate(-80.24 -17.47)"/><path class="cls-3" d="M192.23,485.37a96.85,96.85,0,0,0,10.28,23.93c6.29,10.68,14,18.57,16.71,18.57s15.51-14.23,21-27.88c1.77-4.4,4.28-17.76,4.28-17.76s11.7,9.75,18.92,14.23,21.83,10,24,8,5.48-19.3,5.48-25.73-1-18.31-1-18.31a92.54,92.54,0,0,0,21,4.27c8.18.59,19.1-.2,20.88-2.73s-4.08-18.34-8.59-25.36a66.79,66.79,0,0,0-15.61-16.39s14-4.86,23.41-10.53a72.37,72.37,0,0,0,15-11.91s-8.76-10.33-18.14-16.56a147,147,0,0,0-20.29-10.92s12.49-7.42,22-17c6.26-6.26,11.5-17.35,11.5-17.35s-12.49-7.6-25.36-10.71-27.3,0-27.3,0,7-12.29,8.76-24.37a62.71,62.71,0,0,0-1-22.41s-15.19-1.17-28.47,7.8-16.56,15.81-16.56,15.81,1.42-15.69-1.89-29.35c-2.86-11.73-11-22.12-11-22.12s-10.74,2.5-20.49,16.33c-7,9.87-10.25,25.7-10.25,25.7S203.7,276.33,196.28,268s-16.19-13.27-17.93-13-10.13,11.7-12.08,30c-1.4,13.19,2.91,21.66,2.91,21.66s-11.5-8.33-22.82-12.29c-14.44-5.06-27.08-5.79-28.1-4.86s-2,15.2,4.49,31.59A69.88,69.88,0,0,0,134.45,340a84.74,84.74,0,0,0-28.85-3.32c-13.07.78-21.74,4.28-22.24,5.47S87.9,356.07,98,365.93a74.22,74.22,0,0,0,21.25,14.24S106.1,383.6,96,390.27c-12,7.92-15.87,18.19-15.75,19.53s9.37,11.12,20.87,14.44A56.71,56.71,0,0,0,123,426s-11.29,9.37-17.55,21.83c-4.57,9.11-8.12,20.49-7.22,21.66s12.63,5.15,25.15,3.52c16.39-2.15,26.9-9.55,26.9-9.55s-4.6,15.4-4.22,26.73,3.78,22.06,5.18,22.82,15.8-3.7,25.53-11.12a71.69,71.69,0,0,0,15.51-16.51Z" transform="translate(-80.24 -17.47)"/><path class="cls-4" d="M215.81,310.63c-43.55.37-81.56,30.65-78.8,88.58,3,63.4,86.22,96.64,133.35,54.87,40.47-35.86,29.11-87.36,14.41-107.3-15-20.32-34-36.47-69-36.15Z" transform="translate(-80.24 -17.47)"/><path class="cls-5" d="M215.2,332.08c-24.51-.18-58,16.5-57,60.4.91,43.2,37.09,62,65.3,60.7,33.1-1.55,53.65-30.66,53.94-62.85.26-26.7-18.08-58-62.21-58.25Z" transform="translate(-80.24 -17.47)"/><path class="cls-1" d="M450.77,326.83l-28.21,5s-3,92.85-6.31,145.59a518.92,518.92,0,0,1-12.95,86c-3.3,14.42-.64,38.31,13.29,39.53,14.63,1.22,20.93-13.78,23.25-31.35s8.31-56.47,9.64-111.08,1.29-133.67,1.29-133.67Z" transform="translate(-80.24 -17.47)"/><path class="cls-1" d="M441.81,467.56s10.82-29.13,40.71-32.13c39.8-4,59.89,23.81,60.88,29.47S514,494.18,486.09,494.18c-30.87,0-45.27-15.34-45.27-15.34Z" transform="translate(-80.24 -17.47)"/><path class="cls-2" d="M519.21,462.24c1.33-5.81-8.62-11.28-26.55-9.65s-27.11,6.8-31.44,9.8-14.05,9.5-11.74,11.81,17-3.76,31.3-6c24.68-3.8,36.87.76,38.43-6Z" transform="translate(-80.24 -17.47)"/><path class="cls-1" d="M422.56,418.85s-3.42-34.29-38.66-45c-29.25-8.89-63.35,15-64.11,19.82s22.1,30.65,47.32,37.9c26.47,7.68,52.14,1.83,55.45-12.68Z" transform="translate(-80.24 -17.47)"/><path class="cls-2" d="M341.93,398.27c1,5.35,15,4.59,33.84,8.39s32.55,12.46,35.09,10.44-7.06-18.57-35.62-25.44C354.16,386.57,341.17,394.2,341.93,398.27Z" transform="translate(-80.24 -17.47)"/><path class="cls-3" d="M404.78,323.72s3.38,14.16,13.41,31.21c8.2,13.94,18.23,24.23,21.8,24.23s20.24-18.57,27.38-36.38c2.32-5.73,5.58-23.17,5.58-23.17s15.27,12.73,24.69,18.58,28.48,13,31.29,10.44,7.14-25.18,7.14-33.57-1.33-23.89-1.33-23.89a120.64,120.64,0,0,0,27.46,5.58c10.67.76,24.91-.26,27.23-3.57s-5.32-23.92-11.2-33.08c-8.13-12.72-20.36-21.38-20.36-21.38s18.31-6.34,30.53-13.74A94.26,94.26,0,0,0,608,209.44S596.57,196,584.34,187.83a192.76,192.76,0,0,0-26.47-14.24s16.29-9.68,28.75-22.14c8.16-8.16,15-22.63,15-22.63s-16.29-9.91-33.08-14-35.62,0-35.62,0,9.15-16,11.43-31.79a82,82,0,0,0-1.25-29.24S523.27,52.29,506,64s-21.61,20.62-21.61,20.62,1.86-20.47-2.47-38.28c-3.72-15.3-14.32-28.86-14.32-28.86s-14,3.26-26.74,21.3c-9.07,12.88-13.36,33.54-13.36,33.54S419.75,51,410.06,40.06s-21.11-17.31-23.39-17-13.22,15.27-15.76,39.19c-1.82,17.2,3.8,28.26,3.8,28.26s-15-10.87-29.78-16c-18.84-6.61-35.32-7.56-36.65-6.34s-2.54,19.82,5.85,41.2c5.39,13.79,15.27,24.69,15.27,24.69a110.63,110.63,0,0,0-37.64-4.33c-17.05,1-28.37,5.58-29,7.14s5.92,18.15,19.06,31a97.06,97.06,0,0,0,27.73,18.57s-17.13,4.48-30.31,13.17c-15.61,10.33-20.7,23.74-20.54,25.49s12.22,14.5,27.23,18.83a74,74,0,0,0,28.48,2.28s-14.74,12.23-22.9,28.49c-6,11.88-10.6,26.73-9.42,28.25s16.48,6.72,32.81,4.6c21.38-2.81,35.09-12.46,35.09-12.46s-6,20.09-5.5,34.86,4.93,28.79,6.76,29.78,20.62-4.83,33.3-14.51a93.7,93.7,0,0,0,20.24-21.53Z" transform="translate(-80.24 -17.47)"/><path class="cls-4" d="M435.55,95.74c-56.82.49-106.42,40-102.81,115.56,3.95,82.72,112.49,126.09,174,71.59,52.79-46.79,38-114,18.8-140-19.55-26.51-44.39-47.59-90-47.17Z" transform="translate(-80.24 -17.47)"/><path class="cls-5" d="M434.75,123.73c-32-.23-75.61,21.53-74.4,78.8,1.18,56.36,48.38,80.85,85.18,79.18,43.18-2,70-40,70.38-82,.34-34.82-23.59-75.61-81.16-76Z" transform="translate(-80.24 -17.47)"/><path class="cls-1" d="M712,472.27l-24.84,2.35s-2.65,43.27-5.56,67.85c-2.17,18.33-8.12,32.51-11.4,40.07-2.91,6.72-.57,17.86,11.7,18.43,12.88.57,18.43-6.42,20.47-14.62s7.33-26.32,8.5-51.77S712,472.27,712,472.27Z" transform="translate(-80.24 -17.47)"/><path class="cls-1" d="M701.46,533.68S711,508,737.31,505.38c35.05-3.51,52.74,21,53.61,26S765,557.12,740.46,557.12c-27.19,0-39.87-13.51-39.87-13.51Z" transform="translate(-80.24 -17.47)"/><path class="cls-2" d="M769.62,529c1.17-5.12-7.59-9.94-23.38-8.5s-23.88,6-27.69,8.63-12.37,8.36-10.33,10.4,15-3.31,27.55-5.25c21.74-3.34,32.48.67,33.85-5.28Z" transform="translate(-80.24 -17.47)"/><path class="cls-1" d="M687.15,553.31s-3-30.2-34-39.67c-25.75-7.82-55.79,13.22-56.45,17.46s19.46,27,41.67,33.38c23.31,6.76,45.92,1.61,48.83-11.17Z" transform="translate(-80.24 -17.47)"/><path class="cls-2" d="M616.14,535.18c.87,4.72,13.21,4.05,29.8,7.39s28.66,11,30.9,9.2-6.22-16.35-31.37-22.41C626.91,524.88,615.47,531.6,616.14,535.18Z" transform="translate(-80.24 -17.47)"/><path class="cls-3" d="M671.49,469.53A111.39,111.39,0,0,0,683.3,497c7.22,12.28,16.05,21.34,19.2,21.34s17.82-16.35,24.11-32c2-5.05,4.92-20.4,4.92-20.4s13.44,11.2,21.73,16.35,25.09,11.44,27.56,9.2,6.29-22.17,6.29-29.56-1.17-21-1.17-21a106.85,106.85,0,0,0,24.18,4.92c9.4.67,21.94-.24,24-3.15s-4.68-21.07-9.87-29.13a76.7,76.7,0,0,0-17.92-18.83s16.12-5.58,26.89-12.1a82.82,82.82,0,0,0,17.25-13.68s-10.06-11.87-20.83-19a168.57,168.57,0,0,0-23.31-12.54s14.34-8.53,25.31-19.5c7.19-7.19,13.21-19.93,13.21-19.93s-14.34-8.73-29.12-12.31-31.38,0-31.38,0,8.06-14.11,10.07-28a72.2,72.2,0,0,0-1.1-25.76s-17.46-1.33-32.71,9-19,18.16-19,18.16,1.64-18-2.17-33.71c-3.28-13.48-12.61-25.42-12.61-25.42s-12.34,2.87-23.55,18.76c-8,11.34-11.77,29.53-11.77,29.53s-6.79-18.76-15.32-28.39-18.59-15.25-20.6-15-11.64,13.44-13.88,34.51c-1.6,15.15,3.35,24.88,3.35,24.88s-13.21-9.56-26.22-14.11c-16.59-5.82-31.11-6.65-32.28-5.58s-2.24,17.45,5.15,36.28a80.24,80.24,0,0,0,13.45,21.74A97.53,97.53,0,0,0,572,298.7c-15,.9-25,4.92-25.55,6.29s5.22,16,16.79,27.32a85.25,85.25,0,0,0,24.42,16.35s-15.09,3.95-26.69,11.61c-13.75,9.1-18.23,20.9-18.1,22.44s10.77,12.78,24,16.59a65.29,65.29,0,0,0,25.09,2s-13,10.76-20.17,25.08c-5.25,10.47-9.33,23.54-8.29,24.88s14.51,5.92,28.89,4.05c18.83-2.48,30.9-11,30.9-11S618,462,618.38,475.05s4.35,25.35,6,26.22,18.16-4.25,29.33-12.78a82.52,82.52,0,0,0,17.82-19Z" transform="translate(-80.24 -17.47)"/><path class="cls-4" d="M698.58,268.77c-50,.43-93.71,35.21-90.53,101.77,3.48,72.84,99.06,111,153.21,63,46.49-41.2,33.44-100.37,16.55-123.28-17.22-23.34-39.09-41.9-79.23-41.53Z" transform="translate(-80.24 -17.47)"/><path class="cls-5" d="M697.88,293.41c-28.16-.2-66.59,19-65.52,69.4,1,49.63,42.61,71.2,75,69.73,38-1.77,61.64-35.21,62-72.2.3-30.67-20.77-66.59-71.47-66.93Z" transform="translate(-80.24 -17.47)"/><path class="cls-1" d="M941.48,406.78,969,410.33S972,476,975.18,513.24A274.51,274.51,0,0,0,987.82,574c3.23,10.2.63,27.09-13,28-14.28.86-20.43-9.74-22.69-22.16s-8.12-39.92-9.42-78.52-1.26-94.49-1.26-94.49Z" transform="translate(-80.24 -17.47)"/><path class="cls-1" d="M953.16,472.14s-10.57-27.3-39.74-30.12C874.57,438.29,855,464.34,854,469.65s28.73,27.44,55.94,27.44c30.14,0,44.19-14.38,44.19-14.38Z" transform="translate(-80.24 -17.47)"/><path class="cls-2" d="M877.61,467.16c-1.3-5.45,8.41-10.58,25.91-9.05s26.47,6.38,30.7,9.19,13.71,8.9,11.45,11.07-16.64-3.52-30.55-5.59c-24.09-3.56-36,.71-37.51-5.62Z" transform="translate(-80.24 -17.47)"/><path class="cls-3" d="M986.38,403.86s-3.3,13.28-13.09,29.27c-8,13.06-17.79,22.71-21.28,22.71s-19.76-17.41-26.73-34.11C923,416.36,919.83,400,919.83,400s-14.9,11.92-24.1,17.41-27.8,12.17-30.54,9.79-7-23.61-7-31.47,1.29-22.39,1.29-22.39a122.26,122.26,0,0,1-26.8,5.23c-10.42.71-24.32-.25-26.58-3.35s5.19-22.42,10.94-31c7.93-11.93,19.87-20.05,19.87-20.05s-17.87-5.94-29.81-12.88A91.38,91.38,0,0,1,788,296.75s11.16-12.64,23.1-20.26a189.44,189.44,0,0,1,25.84-13.35s-15.91-9.07-28.07-20.75c-8-7.65-14.64-21.22-14.64-21.22s15.9-9.29,32.29-13.1,34.77,0,34.77,0-8.93-15-11.16-29.79a73.87,73.87,0,0,1,1.23-27.41s19.35-1.43,36.25,9.54,21.1,19.33,21.1,19.33-1.82-19.19,2.41-35.89c3.63-14.34,14-27,14-27s13.68,3.06,26.1,20c8.86,12.07,13,31.43,13,31.43s7.53-20,17-30.22,20.62-16.23,22.84-15.91,12.9,14.31,15.39,36.74c1.78,16.12-3.71,26.48-3.71,26.48s14.64-10.18,29.06-15c18.39-6.2,34.48-7.09,35.78-6s2.48,18.59-5.71,38.63c-5.26,12.92-14.9,23.14-14.9,23.14a111.85,111.85,0,0,1,36.74-4.06c16.64,1,27.69,5.23,28.32,6.69s-5.78,17-18.61,29.08a95,95,0,0,1-27.06,17.41s16.72,4.2,29.58,12.35c15.24,9.69,20.21,22.25,20.06,23.89s-11.94,13.6-26.58,17.66a75,75,0,0,1-27.81,2.13s14.39,11.47,22.36,26.7c5.82,11.14,10.34,25.06,9.19,26.49s-16.09,6.3-32,4.3c-20.87-2.63-34.26-11.67-34.26-11.67s5.86,18.83,5.38,32.68-4.82,27-6.6,27.91-20.13-4.52-32.51-13.6a89.18,89.18,0,0,1-19.76-20.19Z" transform="translate(-80.24 -17.47)"/><path class="cls-4" d="M956.35,190.17c55.46.46,103.88,37.48,100.35,108.32C1052.85,376,946.89,416.68,886.87,365.6c-51.53-43.86-37.07-106.84-18.35-131.22,19.09-24.85,43.34-44.6,87.83-44.21Z" transform="translate(-80.24 -17.47)"/><path class="cls-5" d="M957.13,216.4c31.21-.21,73.81,20.19,72.62,73.87-1.15,52.83-47.23,75.79-83.15,74.22-42.15-1.89-68.33-37.48-68.7-76.85-.33-32.65,23-70.88,79.23-71.24Z" transform="translate(-80.24 -17.47)"/><path class="cls-1" d="M1224.05,343l28.64,5s3,92.85,6.4,145.59a510.75,510.75,0,0,0,13.14,86c3.35,14.42.66,38.31-13.49,39.53-14.84,1.22-21.23-13.77-23.59-31.35s-8.44-56.47-9.79-111.08S1224.05,343,1224.05,343Z" transform="translate(-80.24 -17.47)"/><path class="cls-1" d="M1233.15,513.71s-11-29.13-41.32-32.13c-40.39-4-60.78,23.81-61.78,29.47s29.87,29.28,58.16,29.28c31.34,0,45.94-15.34,45.94-15.34Z" transform="translate(-80.24 -17.47)"/><path class="cls-2" d="M1154.6,508.39c-1.35-5.81,8.75-11.28,26.94-9.65s27.52,6.8,31.92,9.8,14.26,9.5,11.91,11.81-17.31-3.76-31.76-6c-25-3.8-37.43.76-39-6Z" transform="translate(-80.24 -17.47)"/><path class="cls-1" d="M1252.69,435s3.47-34.29,39.24-45c29.67-8.89,64.28,15,65,19.82s-22.43,30.65-48,37.9c-26.86,7.68-52.92,1.83-56.27-12.68Z" transform="translate(-80.24 -17.47)"/><path class="cls-2" d="M1334.51,414.42c-1,5.35-15.22,4.59-34.34,8.39s-33,12.46-35.61,10.44,7.17-18.57,36.15-25.44C1322.1,402.72,1335.28,410.35,1334.51,414.42Z" transform="translate(-80.24 -17.47)"/><path class="cls-3" d="M1270.73,339.87s-3.43,14.16-13.61,31.21c-8.32,13.94-18.5,24.23-22.12,24.23s-20.54-18.57-27.79-36.38c-2.35-5.73-5.66-23.16-5.66-23.16s-15.5,12.72-25.06,18.57-28.9,13-31.75,10.44-7.25-25.18-7.25-33.57,1.35-23.89,1.35-23.89A124.08,124.08,0,0,1,1111,312.9c-10.83.76-25.28-.26-27.63-3.57s5.4-23.92,11.37-33.07c8.25-12.73,20.66-21.39,20.66-21.39s-18.58-6.34-31-13.74a95.4,95.4,0,0,1-19.89-15.54s11.6-13.48,24-21.61a196.41,196.41,0,0,1,26.87-14.24s-16.54-9.68-29.18-22.14C1077.91,159.44,1071,145,1071,145s16.53-9.91,33.57-14,36.15,0,36.15,0-9.29-16-11.6-31.78A81,81,0,0,1,1130.36,70s20.12-1.52,37.69,10.18S1190,100.76,1190,100.76s-1.88-20.47,2.51-38.28c3.78-15.3,14.53-28.86,14.53-28.86s14.22,3.26,27.13,21.3c9.21,12.88,13.57,33.54,13.57,33.54s7.82-21.31,17.65-32.24,21.43-17.32,23.74-17,13.41,15.27,16,39.19c1.85,17.21-3.86,28.26-3.86,28.26s15.23-10.86,30.22-16c19.12-6.61,35.84-7.56,37.19-6.34s2.58,19.82-5.93,41.2c-5.48,13.79-15.5,24.69-15.5,24.69a113.84,113.84,0,0,1,38.2-4.33c17.3,1,28.79,5.58,29.44,7.14s-6,18.15-19.35,31a98.59,98.59,0,0,1-28.13,18.57s17.38,4.48,30.76,13.18c15.84,10.33,21,23.73,20.85,25.48s-12.41,14.51-27.64,18.84a76.25,76.25,0,0,1-28.9,2.27s15,12.23,23.24,28.49c6,11.88,10.75,26.73,9.56,28.25s-16.73,6.72-33.3,4.6c-21.7-2.81-35.62-12.46-35.62-12.46s6.09,20.09,5.59,34.86-5,28.79-6.86,29.78-20.93-4.83-33.8-14.51a94.2,94.2,0,0,1-20.54-21.53Z" transform="translate(-80.24 -17.47)"/><path class="cls-4" d="M1239.51,111.89c57.66.49,108,40,104.33,115.56-4,82.72-114.16,126.09-176.56,71.59-53.57-46.79-38.54-114-19.07-140,19.84-26.51,45-47.59,91.3-47.17Z" transform="translate(-80.24 -17.47)"/><path class="cls-5" d="M1240.32,139.88c32.45-.23,76.73,21.53,75.5,78.8-1.19,56.36-49.1,80.86-86.45,79.18-43.82-2-71-40-71.41-82-.35-34.82,23.93-75.61,82.36-76Z" transform="translate(-80.24 -17.47)"/><path class="cls-1" d="M1499.05,486.69,1475,489s-2.56,41.86-5.38,65.64a135.68,135.68,0,0,1-11,38.76c-2.81,6.51-.55,17.28,11.33,17.83,12.45.55,17.82-6.21,19.8-14.14s7.08-25.46,8.21-50.08,1.1-60.28,1.1-60.28Z" transform="translate(-80.24 -17.47)"/><path class="cls-1" d="M1488.86,546.09s9.22-24.81,34.69-27.37c33.9-3.39,51,20.29,51.86,25.11s-25.07,24.94-48.82,24.94c-26.31,0-38.57-13.07-38.57-13.07Z" transform="translate(-80.24 -17.47)"/><path class="cls-2" d="M1554.8,541.56c1.13-4.95-7.34-9.6-22.62-8.21s-23.1,5.79-26.78,8.34-12,8.09-10,10.07,14.53-3.21,26.66-5.08c21-3.24,31.41.64,32.74-5.12Z" transform="translate(-80.24 -17.47)"/><path class="cls-1" d="M1475,565.09s-2.92-29.22-32.94-38.38c-24.91-7.57-54,12.78-54.61,16.89s18.83,26.11,40.31,32.29c22.55,6.54,44.42,1.56,47.24-10.8Z" transform="translate(-80.24 -17.47)"/><path class="cls-2" d="M1406.33,547.55c.84,4.56,12.78,3.92,28.82,7.15s27.73,10.61,29.9,8.9-6-15.82-30.35-21.68C1416.75,537.59,1405.68,544.09,1406.33,547.55Z" transform="translate(-80.24 -17.47)"/><path class="cls-3" d="M1459.87,484a107.71,107.71,0,0,0,11.42,26.59c7,11.88,15.53,20.65,18.58,20.65s17.24-15.83,23.32-31c2-4.88,4.76-19.74,4.76-19.74s13,10.84,21,15.83,24.26,11.06,26.66,8.89,6.08-21.45,6.08-28.6-1.13-20.35-1.13-20.35a103.27,103.27,0,0,0,23.39,4.76c9.09.64,21.23-.23,23.2-3s-4.53-20.39-9.55-28.18a74.18,74.18,0,0,0-17.34-18.22s15.6-5.4,26-11.71A80.62,80.62,0,0,0,1633,386.69s-9.74-11.49-20.16-18.41a162.68,162.68,0,0,0-22.55-12.14s13.88-8.25,24.49-18.86c7-6.95,12.78-19.28,12.78-19.28s-13.88-8.45-28.18-11.91-30.34,0-30.34,0,7.79-13.65,9.73-27.08a69.67,69.67,0,0,0-1.06-24.91s-16.89-1.3-31.65,8.67-18.4,17.57-18.4,17.57,1.58-17.44-2.11-32.61c-3.17-13-12.2-24.59-12.2-24.59s-11.93,2.78-22.77,18.15c-7.74,11-11.39,28.57-11.39,28.57s-6.57-18.16-14.82-27.47-18-14.76-19.93-14.47-11.26,13-13.43,33.39c-1.55,14.66,3.24,24.08,3.24,24.08s-12.78-9.26-25.37-13.66c-16-5.63-30.09-6.44-31.22-5.4s-2.17,16.89,5,35.1a77.64,77.64,0,0,0,13,21,94.38,94.38,0,0,0-32.06-3.69c-14.53.88-24.17,4.76-24.72,6.09s5.05,15.46,16.24,26.43a82.53,82.53,0,0,0,23.62,15.82s-14.59,3.82-25.82,11.23c-13.3,8.8-17.63,20.22-17.5,21.71s10.42,12.36,23.2,16.05a63.18,63.18,0,0,0,24.26,1.94s-12.55,10.41-19.51,24.26c-5.08,10.13-9,22.78-8,24.07s14,5.73,28,3.92c18.22-2.4,29.9-10.61,29.9-10.61s-5.12,17.11-4.69,29.7,4.2,24.52,5.75,25.36,17.57-4.11,28.38-12.36A80,80,0,0,0,1459.87,484Z" transform="translate(-80.24 -17.47)"/><path class="cls-4" d="M1486.08,289.82c-48.4.42-90.66,34.07-87.58,98.45,3.36,70.47,95.83,107.42,148.21,61,45-39.86,32.36-97.1,16-119.26-16.67-22.58-37.82-40.54-76.65-40.18Z" transform="translate(-80.24 -17.47)"/><path class="cls-5" d="M1485.4,313.66C1458.16,313.47,1421,332,1422,380.8c1,48,41.22,68.88,72.57,67.46,36.79-1.72,59.63-34.07,60-69.86.29-29.67-20.09-64.41-69.14-64.74Z" transform="translate(-80.24 -17.47)"/></svg>