<?xml version="1.0" encoding="utf-8"?>
<!-- Generator: Adobe Illustrator 24.3.0, SVG Export Plug-In . SVG Version: 6.00 Build 0)  -->
<svg version="1.1" id="Capa_1" xmlns="http://www.w3.org/2000/svg" xmlns:xlink="http://www.w3.org/1999/xlink" x="0px" y="0px"
	 viewBox="0 0 500 200" style="enable-background:new 0 0 500 200;" xml:space="preserve">
<style type="text/css">
	.st0{fill:#FFFFFF;}
	.st1{fill:#545454;}
	.st2{fill:#A81C30;}
	.st3{fill:#C2202B;}
	.st4{clip-path:url(#SVGID_2_);}
	.st5{fill:#DB233A;}
	.st6{clip-path:url(#SVGID_4_);}
	.st7{clip-path:url(#SVGID_6_);}
</style>
<path class="st0" d="M159.2,67.2C159.2,67.2,159.1,67.5,159.2,67.2C159.1,67.5,159.2,67.2,159.2,67.2z"/>
<g>
	<g transform="translate(97.319642, 89.379418)">
		<g>
			<path class="st1" d="M2.5,62.8c13.2,0,28.8-10.2,46.8-29.3c4,2,7,5.5,8.5,9.8c0.2,0.4,0.5,0.8,1.1,0.8s1-0.5,1-1.2v-0.3
				c-1.7-4.7-4.7-8.3-9-10.7c3.2-3.5,6.5-7.3,10-11.5c10-12,25-34.2,25-44.2c0-4.5-3.2-7-8.8-7c-7,0-17.7,4.3-25.3,10.5
				C41.1-12.4,32.9-1.2,31.8,5.8v0.2c0,0.5,0.3,1.2,1,1.2c0.6,0,1.2-0.5,1.2-1c1.1-6.5,9.2-17.1,19-24.8c7.5-5.8,17.5-10.2,24-10.2
				c4.5,0,6.5,1.7,6.5,4.9C83.4-14.7,68.9,7,59,18.8c-3.4,4.3-7,8.3-10.3,12c-3.5-1.7-7.9-2.6-12.8-2.6C18.9,28.3-5.8,42.2-5.8,56
				C-5.9,60.1-2.9,62.8,2.5,62.8z M2.5,60.8c-4.2,0-6-1.9-6-4.7c0-11.7,21.6-25.5,39.5-25.5c4.3,0,8,0.5,11.3,1.9
				C29.7,50.8,14.8,60.8,2.5,60.8z"/>
		</g>
	</g>
</g>
<g>
	<g transform="translate(140.265373, 89.379418)">
		<g>
			<path class="st1" d="M41,34.1c6,0,11.8-10.2,10.7-17.5c0-0.3,0.2-0.8,0.5-0.3c10.9,6.8,25.3,7.5,35.1,1.9c0.3-0.2,0.8-0.5,0.8-1
				c0-0.5-0.5-1-1.1-1h-0.5c-9,5.3-22.2,4.5-32.3-1.5c-0.3-0.2-0.3-0.3,0-0.5c0.2-0.2,0.5-0.2,0.8-0.3c0.5,0,0.8-0.3,0.8-1
				c0-0.5-0.3-1.2-1-1.2c-0.2,0-0.4,0-0.4,0.2c-1,0.2-1.9,0.5-2.6,1c-0.4,0.2-0.4,0.2-0.8,0c-0.8-0.2-1.5,0.3-1.9,1.1
				c0,0.2-0.2,0.2-0.2,0.4c-6.5,4-11.5,10.2-11.5,15.4C37.5,32.3,38.8,34.1,41,34.1z M41,32c-1,0-1.5-0.8-1.5-2.3
				c0-4.3,4.3-9.8,10.2-13.3C50.6,22.4,45.5,32,41,32z"/>
		</g>
	</g>
</g>
<g>
	<g transform="translate(173.22986, 89.379418)">
		<g>
			<path class="st1" d="M55.6,41.6c6.2,0,14.3-6.5,18-12l0.5-0.3c4.9-1.5,10.9-3.4,17.3-5.3c6.4-1.9,13.2-3.8,18.8-5.6
				c0.5-0.2,0.8-0.5,0.8-1.2c0-0.5-0.3-1-1-1h-0.3c-5.7,1.9-12.4,3.8-18.8,5.7c-5.3,1.5-10.5,3.2-15,4.5c-0.2,0.2-0.4,0-0.4-0.3
				c0.2-0.3,0.2-0.8,0.4-1c0-1.9-1.3-2.7-3.5-2.7c-1.5,0-3.4,0.4-5.5,0.8c-2,0.3-4.3,0.8-6,0.8c-1.7,0-2.3-0.3-2.3-1
				c0-4.3,9.8-11.8,15.4-11.8c1,0,1.2,0.3,1.2,1c0,1.3-1.7,3.4-3,4.2c-0.3,0.2-0.5,0.5-0.5,1c0,0.8,0.5,1.2,1.2,1.2
				c0.2,0,0.3,0,0.5-0.2c1.7-1,3.4-3.2,4-5.5c0.2-0.2,0.2-0.5,0.2-0.8c0-1.7-1.3-2.8-3.4-2.8c-6.8,0-17.7,8.5-17.7,13.9
				c0,2,1.7,3,4.5,3c1.9,0,4.2-0.3,6.4-0.8c1.5-0.2,6.2-1,6.4-0.3c0.3,0.5-0.3,1.5-1,2.5c0,0.2-0.2,0.2-0.3,0.2
				c-7.5,2.8-20,8-20,11.7C52.4,40.8,53.5,41.6,55.6,41.6z M55.6,39.3c-1,0-1.2,0-1.2-0.3c0-1,6.5-4.7,14.5-7.9
				c0.5,0,0.8,0.2,0.3,0.5C65.5,35.6,60,39.3,55.6,39.3z"/>
		</g>
	</g>
</g>
<g>
	<g transform="translate(212.366954, 89.379418)">
		<g>
			<path class="st1" d="M68.2,35.6c0.8,0,1.7-1.2,3-2.3c2.5-2.3,6.5-6,11-9.4c7.7-5.6,13-8.7,15.6-8.7c1,0,1.5,0.2,1.5,1.2
				c0,2.6-2.3,6.2-5.3,9.2h-1c-9.4,1.3-13.9,2-13.9,4.9c0,2,1.7,3.4,4,3.4c3.8,0,8.3-2.8,12-6.4c10-1.3,23.1-3.2,33-9.4
				c0.2-0.2,0.3-0.5,0.3-1c0-0.5-0.3-1-1-1h-0.4c-8.8,5.5-20.3,7.5-29.7,8.8c2.5-2.8,4-6,4-8.7c0-2-1.1-3.4-3.2-3.4
				c-3.4,0-9,3.2-17.1,9.2c-4.9,3.4-9,7.2-9.8,7.9c-1.5,1.3-1.9,1.3-1.2-0.2c1.7-3,4.5-7.3,8-12.2C117.3-7.7,155-50.3,155-59.7
				c0-2-1.2-3.2-3.2-3.2c-7.9,0-54,50.3-74.8,78.9l-0.2,0.2c-6.2,8.5-10.2,15.2-10.2,17.8C66.7,34.8,67.2,35.6,68.2,35.6z
				 M82.2,12.5c22-28.3,63-73.1,69.5-73.1c1,0,1.2,0.2,1.2,1C152.8-51.5,119-12.9,82.2,12.5z M83.2,31.6c-1.2,0-1.7-0.3-1.7-1.2
				c0-0.5,2.5-1.3,9.8-2.5C88.6,30.3,85.6,31.6,83.2,31.6z"/>
		</g>
	</g>
</g>
<g>
	<g transform="translate(252.029382, 89.379418)">
		<g>
			<path class="st1" d="M26.4,109.4c12.6,0,47.7-28.8,72-55.5c2.8-3.2,5.7-6.4,8-9.8c17.5-10.3,32.5-20.5,40.8-26
				c0.2-0.2,0.4-0.5,0.4-1c0-0.5-0.5-1-1.2-1c-0.2,0-0.3,0-0.5,0.2c-8.8,6.2-20.5,13.9-36.3,23.1c8.8-12.2,14.3-23.5,14.3-26.5
				c0-1.5-0.8-2.5-2.3-2.5c-1.3,0-3.8,1.7-11.5,7.3c-7.9,6-17.7,13.3-21.6,13.3c-1,0-1.1-0.2-1.1-0.8c0-2.8,8-13.7,13.7-18.6
				c0.2-0.2,0.3-0.3,0.3-0.8c0-0.5-0.5-1.2-1.1-1.2c-0.2,0-0.4,0.2-0.5,0.2c-5,4.3-14.7,16.2-14.7,20.3c0,1.9,1.3,3,3.4,3
				c4.7,0,15-7.9,23.1-13.7c4.9-3.8,7.5-5.8,9-6.5c0.5-0.4,1,0,1,0.5c-1.3,5.8-10.7,20.7-16.7,28.5l-1.3,0.8L74.5,60.8
				c-36,22.3-52.6,35.8-52.6,44.3C21.9,107.6,23.7,109.4,26.4,109.4z M26.4,107.1c-1.5,0-2.3-0.8-2.3-2c0-7.3,16.5-20.8,51.5-42.5
				c8.5-5.3,17.3-10.3,25.7-15.4l-4.5,5.3C70.7,81.4,37.5,107.1,26.4,107.1z"/>
		</g>
	</g>
</g>
<path class="st2" d="M282,18.6c0,0.2,0,0.6,0,0.6c-0.1,15.9-32.1,37.7-32.1,37.7s-4.2-2.9-9.7-7.3c16.3-9.7,27.2-27.2,27.4-47.4
	C275.7,3.3,282,10.2,282,18.6"/>
<path class="st3" d="M267.6,2.2c-0.1,20.2-11,37.9-27.4,47.4c-4-3.2-8.6-7.3-12.6-11.7c11.5-3.9,20.1-13.7,22.1-25.9
	C252.4,6.2,258.3,2,265.1,2C266.1,2,266.8,2.1,267.6,2.2"/>
<g>
	<g>
		<defs>
			<rect id="SVGID_1_" x="217.3" y="1.3" width="33.5" height="37.2"/>
		</defs>
		<clipPath id="SVGID_2_">
			<use xlink:href="#SVGID_1_"  style="overflow:visible;"/>
		</clipPath>
		<g class="st4">
			<path class="st5" d="M249.9,12.1c-2,12.1-10.7,21.9-22.1,25.9c-5.6-6.1-10-12.8-10-18.7c0,0,0-0.4,0-0.6
				c0-9.1,7.5-16.6,16.7-16.6C241.4,2,247.3,6.2,249.9,12.1"/>
		</g>
	</g>
</g>
<g>
	<g>
		<defs>
			<rect id="SVGID_3_" x="3.3" y="42.6" width="52.6" height="132"/>
		</defs>
		<clipPath id="SVGID_4_">
			<use xlink:href="#SVGID_3_"  style="overflow:visible;"/>
		</clipPath>
		<g class="st6">
			<path class="st1" d="M10.3,108.5l34,34.1l-3.5,3.5L3.3,108.5l37.5-37.7l3.5,3.5L10.3,108.5z M90,42.6l4.7,1.2L66.7,174.5
				l-4.7-1.2L90,42.6z M115.9,70.9l37.5,37.7l-37.5,37.7l-3.5-3.5l34-34.1l-34-34.1L115.9,70.9z"/>
		</g>
	</g>
</g>
<g>
	<g transform="translate(75.622756, 132.81037)">
		<g>
			<path class="st1" d="M19,33.7c0.1-0.1,0.2-0.1,0.4-0.1h0.9c0.1,0,0.2,0,0.2,0.1c0.1,0.1,0.1,0.1,0.1,0.2v17.1
				c0,0.1,0,0.2-0.1,0.2c-0.1,0.1-0.1,0.1-0.2,0.1h-0.8c-0.1,0-0.2,0-0.2-0.1c-0.1-0.1-0.1-0.1-0.1-0.2V35.2c0,0,0,0,0-0.1
				c0,0,0,0-0.1,0l-2.8,1.3c-0.1,0-0.1,0-0.1,0c-0.1,0-0.2-0.1-0.2-0.2v-0.4c0-0.2,0.1-0.3,0.2-0.4L19,33.7z"/>
		</g>
	</g>
</g>
<g>
	<g transform="translate(81.711977, 132.81037)">
		<g>
			<path class="st1" d="M28.6,45c0.1,0,0.1,0,0.2,0.1c0.1,0.1,0.1,0.1,0.1,0.2V46c0,0.1,0,0.1-0.1,0.2c-0.1,0.1-0.1,0.1-0.2,0.1
				h-1.1c-0.1,0-0.1,0-0.1,0.1v4.5c0,0.1,0,0.2-0.1,0.2c-0.1,0.1-0.1,0.1-0.2,0.1h-0.8c-0.1,0-0.2,0-0.2-0.1
				C26,51.1,26,51.1,26,50.9v-4.5c0-0.1,0-0.1-0.1-0.1h-7.4c-0.1,0-0.1,0-0.2-0.1c-0.1-0.1-0.1-0.1-0.1-0.2v-0.5
				c0-0.1,0-0.2,0.1-0.4l5.4-11.3c0.1-0.1,0.2-0.2,0.3-0.2h0.8c0.1,0,0.2,0,0.2,0.1c0,0.1,0,0.1,0,0.2l-5.1,10.9v0.1c0,0,0,0,0.1,0
				H26c0.1,0,0.1,0,0.1-0.1v-4.3c0-0.1,0-0.1,0.1-0.2c0.1-0.1,0.1-0.1,0.2-0.1h0.8c0.1,0,0.2,0,0.2,0.1c0.1,0.1,0.1,0.1,0.1,0.2v4.3
				c0,0.1,0,0.1,0.1,0.1h1V45z"/>
		</g>
	</g>
</g>
<g>
	<g transform="translate(91.162582, 132.81037)">
		<g>
			<path class="st1" d="M22.4,43.9c-0.1,0-0.2,0-0.2-0.1c-0.1-0.1-0.1-0.1-0.1-0.2V43c0-0.1,0-0.2,0.1-0.2c0.1-0.1,0.1-0.1,0.2-0.1
				h7.1c0.1,0,0.1,0,0.2,0.1c0.1,0.1,0.1,0.1,0.1,0.2v0.5c0,0.1,0,0.1-0.1,0.2c-0.1,0.1-0.1,0.1-0.2,0.1H22.4z"/>
		</g>
	</g>
</g>
<g>
	<g transform="translate(98.043754, 132.81037)">
		<g>
			<path class="st1" d="M31.1,51.5c-1.5,0-2.8-0.4-3.8-1.3s-1.4-2-1.4-3.6v-8.3c0-1.5,0.4-2.7,1.4-3.5c1-0.9,2.1-1.3,3.8-1.3
				c1.5,0,2.8,0.4,3.8,1.4c1,0.9,1.4,2,1.4,3.5v8.3c0,1.5-0.4,2.7-1.4,3.6C33.9,51.1,32.6,51.5,31.1,51.5z M31.1,50.3
				c1.2,0,2-0.3,2.8-1c0.8-0.6,1.1-1.5,1.1-2.7v-8.5c0-1.1-0.3-1.9-1.1-2.7c-0.8-0.6-1.6-1-2.8-1c-1.2,0-2,0.3-2.8,1
				c-0.6,0.6-1.1,1.5-1.1,2.7v8.5c0,1.1,0.3,1.9,1.1,2.7C29,50,29.9,50.3,31.1,50.3z"/>
		</g>
	</g>
</g>
<g>
	<g transform="translate(107.95193, 132.81037)">
		<g>
			<path class="st1" d="M38.8,42.9c0.3,0.9,0.5,1.8,0.5,3c0,0.9-0.1,1.7-0.3,2.4c-0.3,1-0.9,1.8-1.6,2.4c-0.8,0.5-1.7,0.8-2.9,0.8
				c-1.2,0-2.1-0.3-3-1c-0.9-0.6-1.4-1.4-1.6-2.5c-0.1-0.4-0.2-1.1-0.2-1.8c0-0.2,0.1-0.3,0.3-0.3h0.8c0.2,0,0.3,0.1,0.3,0.3
				c0,0.5,0.1,1,0.1,1.3c0.2,0.9,0.5,1.4,1.2,1.9c0.6,0.4,1.3,0.8,2.1,0.8c0.9,0,1.5-0.2,2-0.5c0.5-0.3,1-1,1.2-1.6
				c0.2-0.6,0.3-1.4,0.3-2.1c0-1.1-0.1-1.9-0.4-2.6c-0.5-1.3-1.6-1.9-3.1-1.9c-0.2,0-0.4,0-0.6,0.1h-0.1c-0.1,0-0.2,0-0.3-0.1
				l-0.3-0.4C33,40.8,33,40.6,33,40.6c0-0.1,0-0.1,0.1-0.2l4.5-5.6v-0.1c0,0,0,0-0.1,0h-7.4c-0.1,0-0.2,0-0.2-0.1
				c-0.1-0.1-0.1-0.1-0.1-0.2v-0.5c0-0.1,0-0.2,0.1-0.2c0.1-0.1,0.1-0.1,0.2-0.1H39c0.1,0,0.1,0,0.2,0.1s0.1,0.1,0.1,0.2v0.6
				c0,0.1,0,0.2-0.1,0.4L35,40.3v0.1c0,0,0,0,0.1,0c1,0,1.7,0.3,2.4,0.8C38,41.5,38.5,42.1,38.8,42.9z"/>
		</g>
	</g>
</g>
<g>
	<g>
		<defs>
			<rect id="SVGID_5_" x="444.2" y="42.5" width="52.6" height="132"/>
		</defs>
		<clipPath id="SVGID_6_">
			<use xlink:href="#SVGID_5_"  style="overflow:visible;"/>
		</clipPath>
		<g class="st7">
			<path class="st1" d="M489.7,108.4l-34-34.1l3.5-3.5l37.5,37.7l-37.5,37.7l-3.5-3.5L489.7,108.4z M409.8,174.4l-4.7-1.2
				l28.2-130.7l4.7,1.2L409.8,174.4z M384.1,146.1l-37.5-37.7l37.5-37.7l3.5,3.5l-34,34.1l34,34.1L384.1,146.1z"/>
		</g>
	</g>
</g>
</svg>
